<?xml version="1.0" encoding="utf-8"?>
<!-- Generator: Adobe Illustrator 13.0.2, SVG Export Plug-In . SVG Version: 6.00 Build 14948)  -->
<!DOCTYPE svg PUBLIC "-//W3C//DTD SVG 1.1//EN" "http://www.w3.org/Graphics/SVG/1.1/DTD/svg11.dtd">
<svg version="1.1" id="Layer_3" xmlns="http://www.w3.org/2000/svg" xmlns:xlink="http://www.w3.org/1999/xlink" x="0px" y="0px"
	 width="127.7px" height="127.145px" viewBox="0 0 127.7 127.145" enable-background="new 0 0 127.7 127.145" xml:space="preserve">
<rect x="15.635" y="17.115" fill="#E0E0E0" enable-background="new    " width="112.065" height="87.508"/>
<path fill="none" stroke="#606060" stroke-width="18" d="M127.7,113.205H34.858C20.577,113.205,9,102.236,9,88.706V33.499
	C9,19.969,20.577,9,34.858,9H127.7"/>
<path d="M63.7,115.541c0,6.406-3.197,11.604-9.61,11.604H38.415c-6.41,0-9.606-5.194-9.606-11.604l0,0
	c0-6.413,3.196-11.608,9.606-11.608H54.09C60.503,103.933,63.7,109.128,63.7,115.541L63.7,115.541z"/>
<path d="M123.896,115.502c0,6.406-3.196,11.604-9.61,11.604H98.61c-6.41,0-9.605-5.194-9.605-11.604l0,0
	c0-6.413,3.195-11.608,9.605-11.608h15.676C120.698,103.894,123.896,109.089,123.896,115.502L123.896,115.502z"/>
<path d="M62.146,9.23c0,5.018-2.197,9.083-8.61,9.083H37.86c-6.41,0-8.606-4.065-8.606-9.083l0,0c0-5.02,2.196-9.087,8.606-9.087
	h15.675C59.948,0.144,62.146,4.21,62.146,9.23L62.146,9.23z"/>
<g>
	<g>
		<path fill="#050505" d="M33.999,45.052h17.425v3.504H38.175v10.753h12.241v3.456H38.175v14.642h-4.176V45.052z"/>
		<path fill="#050505" d="M63.519,48.604h-9.841v-3.552h23.954v3.552h-9.89v28.803h-4.224V48.604z"/>
		<path fill="#050505" d="M108.497,63.198c-0.24-4.513-0.528-9.938-0.48-13.97h-0.145c-1.104,3.793-2.447,7.873-4.08,12.289
			l-5.713,15.697h-3.168l-5.232-15.409c-1.535-4.561-2.832-8.736-3.744-12.577h-0.096c-0.096,4.032-0.336,9.457-0.624,14.306
			L84.35,77.406h-3.984l2.256-32.354h5.329l5.521,15.649c1.344,3.984,2.447,7.536,3.264,10.896h0.145
			c0.816-3.265,1.968-6.816,3.408-10.896l5.76-15.649h5.329l2.017,32.354h-4.08L108.497,63.198z"/>
	</g>
	<g>
		<path fill="none" stroke="#000000" d="M33.999,45.052h17.425v3.504H38.175v10.753h12.241v3.456H38.175v14.642h-4.176V45.052z"/>
		<path fill="none" stroke="#000000" d="M63.519,48.604h-9.841v-3.552h23.954v3.552h-9.89v28.803h-4.224V48.604z"/>
		<path fill="none" stroke="#000000" d="M108.497,63.198c-0.24-4.513-0.528-9.938-0.48-13.97h-0.145
			c-1.104,3.793-2.447,7.873-4.08,12.289l-5.713,15.697h-3.168l-5.232-15.409c-1.535-4.561-2.832-8.736-3.744-12.577h-0.096
			c-0.096,4.032-0.336,9.457-0.624,14.306L84.35,77.406h-3.984l2.256-32.354h5.329l5.521,15.649
			c1.344,3.984,2.447,7.536,3.264,10.896h0.145c0.816-3.265,1.968-6.816,3.408-10.896l5.76-15.649h5.329l2.017,32.354h-4.08
			L108.497,63.198z"/>
	</g>
</g>
</svg>
