<?xml version="1.0" encoding="utf-8"?>
<!-- Generator: Adobe Illustrator 13.0.2, SVG Export Plug-In . SVG Version: 6.00 Build 14948)  -->
<!DOCTYPE svg PUBLIC "-//W3C//DTD SVG 1.0//EN" "http://www.w3.org/TR/2001/REC-SVG-20010904/DTD/svg10.dtd">
<svg version="1.0" id="Calque_1" xmlns="http://www.w3.org/2000/svg" xmlns:xlink="http://www.w3.org/1999/xlink" x="0px" y="0px"
	 width="127.723px" height="128.141px" viewBox="0 0 127.723 128.141" enable-background="new 0 0 127.723 128.141"
	 xml:space="preserve">
<rect x="5.929" y="5.26" fill="#FFFFFF" width="117.795" height="117.667"/>
<polygon fill="#FFFFFF" points="121.385,97.732 88.295,92.797 73.488,72.688 121.385,72.688 "/>
<path fill="none" stroke="#E42322" stroke-width="7" d="M4.335,28.348c14.69-1.526,11.249-0.169,28.625-10.51
	c9.571-5.695,17.296,6.932,22.903,10.917c10.831,7.696,24.45,22.816,67.333,22.816"/>
<path fill="none" stroke="#000000" d="M90.658,41.247"/>
<path fill="none" stroke="#61AD25" stroke-width="7" d="M1.001,44.648c14.69-1.67,11.249-0.186,28.625-11.506
	c9.571-6.235,17.296,7.588,22.903,11.95c10.831,8.425,24.45,24.978,67.333,24.978"/>
<path fill="none" stroke="#478EBE" stroke-width="7" d="M1.001,60.648c14.69-1.67,11.249-0.186,28.625-11.506
	c9.571-6.235,17.296,7.588,22.903,11.95c10.831,8.425,24.45,24.978,67.333,24.978"/>
<path fill="none" stroke="#C75C9A" stroke-width="7" d="M1.001,74.969c14.731-1.584,11.281-0.176,28.705-10.909
	c9.598-5.911,17.345,7.194,22.967,11.329c10.861,7.988,24.518,23.682,67.521,23.682"/>
<path fill="none" stroke="#FEEB41" stroke-width="7" d="M1.667,89.127c14.69-1.671,11.249-0.186,28.625-11.506
	c9.571-6.235,17.296,7.588,22.903,11.949c10.831,8.426,24.45,24.979,67.333,24.979"/>
<path fill="none" stroke="#565758" stroke-width="8" d="M123.723,112.833c0,6.248-5.027,11.308-11.225,11.308H15.224
	C9.025,124.141,4,119.081,4,112.833V15.306C4,9.061,9.025,4,15.224,4h97.274c6.196,0,11.225,5.061,11.225,11.306V112.833z"/>
</svg>
