<?xml version="1.0" encoding="utf-8"?>
<!-- Generator: Adobe Illustrator 13.0.2, SVG Export Plug-In . SVG Version: 6.00 Build 14948)  -->
<!DOCTYPE svg PUBLIC "-//W3C//DTD SVG 1.0//EN" "http://www.w3.org/TR/2001/REC-SVG-20010904/DTD/svg10.dtd">
<svg version="1.0" id="Calque_1" xmlns="http://www.w3.org/2000/svg" xmlns:xlink="http://www.w3.org/1999/xlink" x="0px" y="0px"
	 width="127.75px" height="127.895px" viewBox="0 0 127.75 127.895" enable-background="new 0 0 127.75 127.895"
	 xml:space="preserve">
<g id="Layer_4">
	<g id="XMLID_1_">
		<g>
			<path fill="#E9E9E8" d="M127.755-0.003v122.5h-98.96c-15.9,0-28.8-12.891-28.8-28.8v-64.9c0-15.9,12.9-28.8,28.8-28.8H127.755z"
				/>
		</g>
	</g>
	<path fill="#565758" d="M56.896,7.26c0,3.48-2.821,6.301-6.302,6.301H22.518c-3.48,0-6.302-2.819-6.302-6.301l0,0
		c0-3.479,2.822-6.302,6.302-6.302h28.077C54.075,0.958,56.896,3.779,56.896,7.26L56.896,7.26z"/>
	<path fill="#565758" d="M56.54,121.595c0,3.479-2.822,6.3-6.303,6.3H22.16c-3.48,0-6.301-2.819-6.301-6.3l0,0
		c0-3.479,2.821-6.303,6.301-6.303h28.077C53.718,115.292,56.54,118.113,56.54,121.595L56.54,121.595z"/>
</g>
<g enable-background="new    ">
	<path d="M51.569,93.23H46.12v-5.449c-6.492-0.375-10.911-1.91-13.254-4.605c-2.344-2.695-3.516-5.684-3.516-8.965v-0.352h7.102
		v0.352c0,2.109,0.603,3.838,1.811,5.186c1.207,1.348,3.826,2.268,7.857,2.76V63.24l-2.18-0.843
		c-5.04-2.039-8.415-4.178-10.125-6.416c-1.711-2.238-2.566-4.928-2.566-8.068c0-2.484,0.533-4.752,1.6-6.803
		c1.066-2.051,2.637-3.744,4.711-5.08s4.927-2.227,8.561-2.672v-5.59h5.449v5.59c5.203,0.375,8.707,1.617,10.512,3.727
		c1.805,2.109,2.707,4.348,2.707,6.715v0.352h-7.066V43.8c0-1.289-0.522-2.35-1.564-3.182c-1.043-0.832-2.572-1.412-4.588-1.74
		v19.23l2.988,1.055c2.367,0.914,4.518,2.033,6.451,3.357s3.275,2.836,4.025,4.535s1.125,3.475,1.125,5.326
		c0,2.297-0.539,4.559-1.617,6.785c-1.078,2.227-2.613,4.09-4.605,5.59c-1.992,1.5-4.781,2.508-8.367,3.023V93.23z M46.12,56.105
		V38.808c-2.86,0.492-4.917,1.576-6.17,3.252c-1.254,1.676-1.881,3.568-1.881,5.678c0,1.711,0.475,3.158,1.424,4.342
		s2.701,2.35,5.256,3.498L46.12,56.105z M51.569,65.209V81.98c2.109-0.258,3.662-0.791,4.658-1.6
		c0.996-0.809,1.763-1.847,2.303-3.112c0.539-1.266,0.809-2.577,0.809-3.938c0-1.711-0.463-3.152-1.389-4.324
		c-0.926-1.173-2.49-2.228-4.693-3.165L51.569,65.209z"/>
	<path d="M80.748,87.781h-6.82l13.629-19.893l-12.82-19.377h7.518l9.135,13.784l9.443-13.784h6.775L94.73,67.339l13.545,20.441
		h-7.559l-9.818-14.84L80.748,87.781z"/>
</g>
</svg>
