<?xml version="1.0" encoding="utf-8"?>
<!-- Generator: Adobe Illustrator 13.0.2, SVG Export Plug-In . SVG Version: 6.00 Build 14948)  -->
<!DOCTYPE svg PUBLIC "-//W3C//DTD SVG 1.0//EN" "http://www.w3.org/TR/2001/REC-SVG-20010904/DTD/svg10.dtd">
<svg version="1.0" id="Calque_1" xmlns="http://www.w3.org/2000/svg" xmlns:xlink="http://www.w3.org/1999/xlink" x="0px" y="0px"
	 width="127.723px" height="128.141px" viewBox="0 0 127.723 128.141" enable-background="new 0 0 127.723 128.141"
	 xml:space="preserve">
<rect x="6.362" y="69.571" fill="#19F2D7" stroke="#565758" stroke-width="0.5" width="114.25" height="51"/>
<rect x="7.862" y="7.321" fill="#BF1616" stroke="#BE0930" stroke-width="0.25" width="112.5" height="58.5"/>
<path fill="none" stroke="#000000" d="M90.657,41.16"/>
<line fill="none" stroke="#565758" stroke-width="5" x1="4.862" y1="68.071" x2="122.612" y2="68.071"/>
<path fill="none" stroke="#E8BABA" stroke-width="7" d="M120.112,44.23c-3.078,0.026-5.737-1.914-8.595-2.957
	c-3.048-1.112-5.784-3.541-8.652-5.538c-3.183-2.217-5.263-3.265-8.541-1.033c-3.101,2.111-4.794,5.131-7.023,7.983
	c-3.282,4.198-7.909,8.43-11.754,3.021c-1.693-2.385-2.734-4.494-3.787-7.378c-0.848-2.328-1.741-6.925-3.792-8.204
	c-4.974-3.102-7.456,6.906-8.787,10.265c-1.967,4.968-5.334,13.305-9.532,16.232c-4.989,3.477-8.155-0.746-9.091-6.289
	c-1.318-7.8-1.541-16.066-1.916-23.994c-0.257-5.44-0.378-16.885-8.222-13.275c-5.712,2.628-7.412,12.323-10.482,17.798
	c-1.094,1.95-1.97,3.289-3.299,5.028c-2.315,3.032-4.767,5.955-8.527,5.681"/>
<rect x="6.778" y="92.571" fill="#299979" stroke="#3FA068" stroke-width="0.5" width="9.414" height="28.667"/>
<rect x="16.152" y="98.946" fill="#299979" stroke="#3FA068" stroke-width="0.5" width="14.633" height="22.125"/>
<rect x="30.785" y="85.779" fill="#299979" stroke="#3FA068" stroke-width="0.5" width="19.13" height="35.167"/>
<rect x="50.126" y="108.696" fill="#299979" stroke="#3FA068" stroke-width="0.5" width="23.032" height="12.375"/>
<rect x="73.369" y="100.156" fill="#299979" stroke="#3FA068" stroke-width="0.5" width="23.201" height="20.915"/>
<rect x="96.674" y="94.446" fill="#299979" stroke="#3FA068" stroke-width="0.5" width="23.825" height="26"/>
<rect x="0.057" y="0.154" fill="none" width="125.996" height="127.688"/>
<path fill="#FFFFFF" fill-opacity="0" stroke="#565758" stroke-width="8" d="M123.723,112.833c0,6.248-5.027,11.308-11.225,11.308
	H15.224C9.025,124.141,4,119.081,4,112.833V15.306C4,9.061,9.025,4,15.224,4h97.274c6.195,0,11.225,5.061,11.225,11.306V112.833z"/>
</svg>
